<svg xmlns="http://www.w3.org/2000/svg" xmlns:xlink="http://www.w3.org/1999/xlink" width="2000" zoomAndPan="magnify" viewBox="0 0 1500 1499.999933" height="2000" preserveAspectRatio="xMidYMid meet" version="1.0"><defs><g/><clipPath id="822397ab35"><path d="M 176 343 L 1324 343 L 1324 869.328125 L 176 869.328125 Z M 176 343 " clip-rule="nonzero"/></clipPath><clipPath id="a12b168482"><path d="M 405.738281 388.597656 L 1285.488281 388.597656 L 1285.488281 869 L 405.738281 869 Z M 405.738281 388.597656 " clip-rule="nonzero"/></clipPath><clipPath id="56cb6f59a5"><path d="M 194.402344 430.996094 L 662.402344 430.996094 L 662.402344 868.996094 L 194.402344 868.996094 Z M 194.402344 430.996094 " clip-rule="nonzero"/></clipPath></defs><g clip-path="url(#822397ab35)"><path fill="#00bf63" d="M 1247.226562 421.144531 C 1196.667969 370.582031 1129.34375 342.90625 1057.929688 343.320312 C 986.421875 343.695312 919.492188 372.042969 869.464844 423.136719 L 783.101562 511.34375 L 844.878906 570.585938 L 930.617188 483.015625 C 964.527344 448.375 1009.910156 429.15625 1058.382812 428.894531 C 1058.710938 428.894531 1059.035156 428.894531 1059.367188 428.894531 C 1107.476562 428.894531 1152.667969 447.613281 1186.71875 481.660156 C 1255.457031 550.398438 1255.457031 662.246094 1186.71875 730.988281 C 1152.667969 765.035156 1107.476562 783.753906 1059.367188 783.753906 C 1059.042969 783.753906 1058.710938 783.753906 1058.382812 783.753906 C 1009.910156 783.492188 964.527344 764.273438 930.617188 729.632812 L 809.882812 606.324219 L 809.9375 606.273438 L 809.886719 606.3125 L 750.007812 545.152344 L 750 545.160156 L 630.535156 423.136719 C 580.507812 372.042969 513.578125 343.695312 442.070312 343.320312 C 370.679688 342.90625 303.332031 370.574219 252.773438 421.144531 C 150.65625 523.25 150.65625 689.390625 252.773438 791.503906 C 302.992188 841.730469 369.652344 869.328125 440.621094 869.328125 C 441.105469 869.328125 441.585938 869.328125 442.070312 869.328125 C 513.578125 868.953125 580.507812 840.605469 630.535156 789.507812 L 716.90625 701.296875 L 655.128906 642.054688 L 569.382812 729.632812 C 535.464844 764.273438 490.097656 783.492188 441.617188 783.753906 C 441.289062 783.753906 440.964844 783.753906 440.632812 783.753906 C 392.523438 783.753906 347.332031 765.035156 313.28125 730.988281 C 244.542969 662.246094 244.542969 550.398438 313.28125 481.660156 C 347.332031 447.613281 392.523438 428.894531 440.632812 428.894531 C 440.957031 428.894531 441.289062 428.894531 441.617188 428.894531 C 490.097656 429.15625 535.464844 448.375 569.382812 483.015625 L 690.117188 606.324219 L 690.113281 606.324219 L 750 667.488281 L 869.464844 789.507812 C 919.492188 840.605469 986.421875 868.953125 1057.929688 869.328125 C 1058.414062 869.328125 1058.894531 869.328125 1059.378906 869.328125 C 1130.347656 869.328125 1197.007812 841.722656 1247.226562 791.503906 C 1349.34375 689.390625 1349.34375 523.25 1247.226562 421.144531 " fill-opacity="1" fill-rule="nonzero"/></g><g clip-path="url(#a12b168482)"><path fill="#00bf63" d="M 1285.113281 619.261719 C 1285.113281 619.246094 1285.121094 619.230469 1285.121094 619.210938 C 1285.121094 619.195312 1285.113281 619.179688 1285.113281 619.164062 L 1285.113281 612.601562 L 1270.171875 612.601562 L 1270.171875 612.605469 L 1164.546875 612.605469 C 1161.476562 612.605469 1158.804688 614.71875 1158.113281 617.710938 L 1154.089844 634.96875 L 1133.597656 530.8125 C 1132.984375 527.710938 1130.265625 525.484375 1127.117188 525.484375 C 1127.070312 525.484375 1127.039062 525.484375 1126.992188 525.484375 C 1123.792969 525.539062 1121.097656 527.886719 1120.59375 531.035156 L 1076.121094 808.984375 L 1039.019531 394.984375 C 1038.714844 391.582031 1035.867188 388.972656 1032.449219 388.96875 C 1032.445312 388.96875 1032.441406 388.96875 1032.4375 388.96875 C 1029.027344 388.96875 1026.175781 391.558594 1025.863281 394.957031 L 1008.0625 587.773438 L 994.21875 561.980469 C 992.96875 559.648438 990.425781 558.296875 987.820312 558.523438 C 985.183594 558.765625 982.945312 560.539062 982.121094 563.054688 L 952.792969 652.867188 L 913.128906 545.203125 C 912.164062 542.585938 909.628906 540.839844 906.839844 540.890625 C 904.035156 540.929688 901.566406 542.730469 900.667969 545.382812 L 877.96875 612.601562 L 405.738281 612.601562 L 405.738281 625.816406 L 882.703125 625.816406 C 885.535156 625.816406 888.054688 624.007812 888.960938 621.320312 L 907.199219 567.339844 L 946.96875 675.28125 C 947.929688 677.875 950.402344 679.597656 953.160156 679.597656 C 953.207031 679.597656 953.242188 679.597656 953.292969 679.597656 C 956.097656 679.542969 958.570312 677.722656 959.449219 675.039062 L 989.882812 581.839844 L 1006.800781 613.363281 C 1008.175781 615.929688 1011.085938 617.292969 1013.933594 616.710938 C 1016.792969 616.128906 1018.929688 613.746094 1019.199219 610.84375 L 1032.339844 468.484375 L 1067.691406 862.933594 C 1067.980469 866.257812 1070.707031 868.828125 1074.042969 868.945312 C 1074.113281 868.949219 1074.199219 868.949219 1074.277344 868.949219 C 1077.5 868.949219 1080.28125 866.601562 1080.785156 863.394531 L 1127.785156 569.707031 L 1147.058594 667.675781 C 1147.660156 670.722656 1150.308594 672.941406 1153.425781 673.003906 C 1156.507812 673.03125 1159.277344 670.933594 1159.972656 667.898438 L 1169.789062 625.820312 L 1278.515625 625.820312 C 1278.539062 625.820312 1278.566406 625.8125 1278.589844 625.8125 L 1285.117188 625.8125 L 1285.117188 619.261719 Z M 1285.113281 619.261719 " fill-opacity="1" fill-rule="nonzero"/></g><g fill="#00bf63" fill-opacity="1"><g transform="translate(428.542964, 1078.198663)"><g><path d="M 20.828125 -35.453125 C 25.421875 -28.835938 30.207031 -23.707031 35.1875 -20.0625 C 40.175781 -16.425781 46.644531 -14.609375 54.59375 -14.609375 C 58.40625 -14.609375 62.046875 -15.222656 65.515625 -16.453125 C 68.992188 -17.691406 71.851562 -19.488281 74.09375 -21.84375 C 76.332031 -24.195312 77.453125 -26.992188 77.453125 -30.234375 C 77.453125 -35.835938 75.070312 -40.207031 70.3125 -43.34375 C 65.550781 -46.476562 58.859375 -48.882812 50.234375 -50.5625 C 39.253906 -52.800781 30.515625 -56.691406 24.015625 -62.234375 C 17.523438 -67.785156 14.28125 -75.828125 14.28125 -86.359375 C 14.28125 -93.078125 16.15625 -98.898438 19.90625 -103.828125 C 23.65625 -108.753906 28.609375 -112.5625 34.765625 -115.25 C 40.929688 -117.9375 47.597656 -119.28125 54.765625 -119.28125 C 64.066406 -119.28125 72.078125 -117.488281 78.796875 -113.90625 C 85.515625 -110.320312 90.773438 -105.222656 94.578125 -98.609375 L 81.8125 -86.015625 C 78.789062 -91.054688 74.984375 -95.144531 70.390625 -98.28125 C 65.796875 -101.414062 60.421875 -102.984375 54.265625 -102.984375 C 48.109375 -102.984375 42.925781 -101.554688 38.71875 -98.703125 C 34.519531 -95.847656 32.421875 -91.898438 32.421875 -86.859375 C 32.421875 -81.140625 34.632812 -76.960938 39.0625 -74.328125 C 43.488281 -71.703125 49.335938 -69.609375 56.609375 -68.046875 C 63.222656 -66.703125 69.5 -64.628906 75.4375 -61.828125 C 81.375 -59.023438 86.21875 -55.410156 89.96875 -50.984375 C 93.71875 -46.566406 95.59375 -41.21875 95.59375 -34.9375 C 95.59375 -23.738281 91.785156 -14.832031 84.171875 -8.21875 C 76.554688 -1.613281 66.082031 1.6875 52.75 1.6875 C 43.675781 1.6875 35.414062 -0.101562 27.96875 -3.6875 C 20.519531 -7.28125 14 -13.109375 8.40625 -21.171875 Z M 20.828125 -35.453125 "/></g></g></g><g fill="#00bf63" fill-opacity="1"><g transform="translate(530.854944, 1078.198663)"><g><path d="M 109.203125 -117.59375 L 66.1875 -52.421875 L 66.1875 0 L 48.046875 0 L 48.046875 -52.078125 L 1.6875 -117.59375 L 23.515625 -117.59375 L 57.453125 -68.875 L 88.375 -117.59375 Z M 109.203125 -117.59375 "/></g></g></g><g fill="#00bf63" fill-opacity="1"><g transform="translate(641.734932, 1078.198663)"><g><path d="M 98.609375 -117.59375 L 116.765625 -117.59375 L 116.765625 0 L 100.125 0 L 31.75 -89.71875 C 32.425781 -82.882812 33.070312 -76.078125 33.6875 -69.296875 C 34.300781 -62.523438 34.609375 -55.722656 34.609375 -48.890625 L 34.609375 0 L 16.46875 0 L 16.46875 -117.59375 L 32.765625 -117.59375 L 101.140625 -26.046875 C 100.128906 -34.210938 99.453125 -43.03125 99.109375 -52.5 C 98.773438 -61.96875 98.609375 -70.785156 98.609375 -78.953125 Z M 98.609375 -117.59375 "/></g></g></g><g fill="#00bf63" fill-opacity="1"><g transform="translate(774.95889, 1078.198663)"><g><path d="M 105.84375 -14.453125 C 103.488281 -11.765625 100.210938 -9.1875 96.015625 -6.71875 C 91.816406 -4.257812 87 -2.242188 81.5625 -0.671875 C 76.132812 0.898438 70.335938 1.6875 64.171875 1.6875 C 53.648438 1.6875 44.160156 -0.800781 35.703125 -5.78125 C 27.242188 -10.769531 20.519531 -17.800781 15.53125 -26.875 C 10.550781 -35.945312 8.0625 -46.585938 8.0625 -58.796875 C 8.0625 -67.421875 9.570312 -75.375 12.59375 -82.65625 C 15.625 -89.9375 19.828125 -96.265625 25.203125 -101.640625 C 30.578125 -107.015625 36.734375 -111.1875 43.671875 -114.15625 C 50.617188 -117.125 57.957031 -118.609375 65.6875 -118.609375 C 72.070312 -118.609375 78.035156 -117.628906 83.578125 -115.671875 C 89.117188 -113.710938 93.988281 -111.191406 98.1875 -108.109375 C 102.394531 -105.023438 105.675781 -101.75 108.03125 -98.28125 L 95.921875 -85.6875 C 91.785156 -89.9375 87.195312 -93.460938 82.15625 -96.265625 C 77.113281 -99.066406 71.625 -100.46875 65.6875 -100.46875 C 58.96875 -100.46875 52.609375 -98.785156 46.609375 -95.421875 C 40.617188 -92.066406 35.773438 -87.28125 32.078125 -81.0625 C 28.390625 -74.84375 26.546875 -67.421875 26.546875 -58.796875 C 26.546875 -49.390625 28.421875 -41.550781 32.171875 -35.28125 C 35.921875 -29.007812 40.90625 -24.332031 47.125 -21.25 C 53.34375 -18.164062 60.035156 -16.625 67.203125 -16.625 C 73.804688 -16.625 79.628906 -17.941406 84.671875 -20.578125 C 89.710938 -23.210938 93.742188 -26.097656 96.765625 -29.234375 Z M 105.84375 -14.453125 "/></g></g><g transform="translate(889.030881, 1078.198663)"><g><path d="M 68.203125 0 L 12.09375 0 L 12.09375 -16.796875 L 31.078125 -16.796875 L 31.078125 -100.796875 L 12.09375 -100.796875 L 12.09375 -117.59375 L 68.203125 -117.59375 L 68.203125 -100.796875 L 49.21875 -100.796875 L 49.21875 -16.796875 L 68.203125 -16.796875 Z M 68.203125 0 "/></g></g></g><g fill="#00bf63" fill-opacity="1"><g transform="translate(969.334851, 1078.198663)"><g><path d="M 38.8125 0 L 38.8125 -100.125 L 5.875 -100.125 L 5.875 -117.59375 L 90.890625 -117.59375 L 90.890625 -100.125 L 56.953125 -100.125 L 56.953125 0 Z M 38.8125 0 "/></g></g></g><g clip-path="url(#56cb6f59a5)"><path fill="#00bf63" d="M 1073.78125 619.261719 C 1073.78125 619.246094 1073.785156 619.230469 1073.785156 619.210938 C 1073.785156 619.195312 1073.78125 619.179688 1073.78125 619.164062 L 1073.78125 612.601562 L 1058.835938 612.601562 L 1058.835938 612.605469 L 953.210938 612.605469 C 950.140625 612.605469 947.46875 614.71875 946.777344 617.710938 L 942.753906 634.96875 L 922.261719 530.8125 C 921.652344 527.710938 918.933594 525.484375 915.785156 525.484375 C 915.734375 525.484375 915.703125 525.484375 915.65625 525.484375 C 912.457031 525.539062 909.765625 527.886719 909.257812 531.035156 L 864.785156 808.984375 L 827.683594 394.984375 C 827.378906 391.582031 824.53125 388.972656 821.113281 388.96875 C 821.109375 388.96875 821.105469 388.96875 821.105469 388.96875 C 817.691406 388.96875 814.839844 391.558594 814.527344 394.957031 L 796.726562 587.773438 L 782.882812 561.980469 C 781.632812 559.648438 779.089844 558.296875 776.484375 558.523438 C 773.851562 558.765625 771.609375 560.539062 770.789062 563.054688 L 741.460938 652.867188 L 701.796875 545.203125 C 700.828125 542.585938 698.296875 540.839844 695.503906 540.890625 C 692.703125 540.929688 690.230469 542.730469 689.335938 545.382812 L 666.636719 612.601562 L 194.402344 612.601562 L 194.402344 625.816406 L 671.367188 625.816406 C 674.199219 625.816406 676.71875 624.007812 677.625 621.320312 L 695.863281 567.339844 L 735.636719 675.28125 C 736.59375 677.875 739.070312 679.597656 741.824219 679.597656 C 741.871094 679.597656 741.90625 679.597656 741.957031 679.597656 C 744.761719 679.542969 747.238281 677.722656 748.113281 675.039062 L 778.546875 581.839844 L 795.464844 613.363281 C 796.839844 615.929688 799.75 617.292969 802.601562 616.710938 C 805.457031 616.128906 807.597656 613.746094 807.863281 610.84375 L 821.003906 468.484375 L 856.359375 862.933594 C 856.648438 866.257812 859.375 868.828125 862.710938 868.945312 C 862.777344 868.949219 862.863281 868.949219 862.941406 868.949219 C 866.167969 868.949219 868.945312 866.601562 869.449219 863.394531 L 916.449219 569.707031 L 935.726562 667.675781 C 936.328125 670.722656 938.976562 672.941406 942.089844 673.003906 C 945.171875 673.03125 947.941406 670.933594 948.640625 667.898438 L 958.453125 625.820312 L 1067.179688 625.820312 C 1067.207031 625.820312 1067.230469 625.8125 1067.253906 625.8125 L 1073.78125 625.8125 Z M 1073.78125 619.261719 " fill-opacity="1" fill-rule="nonzero"/></g></svg>